<svg width="186" height="206" viewBox="0 0 186 206" fill="none" xmlns="http://www.w3.org/2000/svg">
<rect width="186" height="206" rx="16" fill="white"/>
<rect x="12.5" y="12.5" width="161" height="181" rx="11.5" stroke="#BCC3D0" stroke-opacity="0.5" stroke-dasharray="6 6"/>
<g clip-path="url(#clip0_43_183)">
<path d="M92.1722 79.1484L92.1663 92.0134C92.1663 92.2344 92.2541 92.4464 92.4104 92.6026C92.5667 92.7589 92.7787 92.8467 92.9997 92.8467C93.2207 92.8467 93.4327 92.7589 93.5889 92.6026C93.7452 92.4464 93.833 92.2344 93.833 92.0134L93.8388 79.1626L96.2655 81.5901C96.4218 81.7463 96.6337 81.834 96.8547 81.834C97.0756 81.834 97.2876 81.7463 97.4438 81.5901V81.5901C97.6001 81.4338 97.6878 81.2219 97.6878 81.0009C97.6878 80.7799 97.6001 80.568 97.4438 80.4117L94.768 77.7326C94.5358 77.5002 94.2602 77.3159 93.9568 77.1902C93.6533 77.0645 93.3281 76.9998 92.9997 76.9998C92.6712 76.9998 92.346 77.0645 92.0426 77.1902C91.7392 77.3159 91.4635 77.5002 91.2313 77.7326L88.5555 80.4092C88.3993 80.5655 88.3115 80.7774 88.3115 80.9984C88.3115 81.2194 88.3993 81.4313 88.5555 81.5876V81.5876C88.7118 81.7438 88.9237 81.8315 89.1447 81.8315C89.3656 81.8315 89.5776 81.7438 89.7338 81.5876L92.1722 79.1484Z" fill="#626C77"/>
<path d="M101.333 91.1661V94.4994C101.333 94.7204 101.246 94.9324 101.089 95.0887C100.933 95.245 100.721 95.3328 100.5 95.3328H85.5C85.279 95.3328 85.067 95.245 84.9107 95.0887C84.7545 94.9324 84.6667 94.7204 84.6667 94.4994V91.1661C84.6667 90.9451 84.5789 90.7331 84.4226 90.5768C84.2663 90.4206 84.0543 90.3328 83.8333 90.3328V90.3328C83.6123 90.3328 83.4004 90.4206 83.2441 90.5768C83.0878 90.7331 83 90.9451 83 91.1661V94.4994C83 95.1625 83.2634 95.7983 83.7322 96.2672C84.2011 96.736 84.837 96.9994 85.5 96.9994H100.5C101.163 96.9994 101.799 96.736 102.268 96.2672C102.737 95.7983 103 95.1625 103 94.4994V91.1661C103 90.9451 102.912 90.7331 102.756 90.5768C102.6 90.4206 102.388 90.3328 102.167 90.3328C101.946 90.3328 101.734 90.4206 101.577 90.5768C101.421 90.7331 101.333 90.9451 101.333 91.1661Z" fill="#626C77"/>
</g>
<path d="M63.2525 109.1C63.9725 109.1 64.4991 109.287 64.8325 109.66C65.1658 110.027 65.3325 110.537 65.3325 111.19C65.3325 111.843 65.1658 112.35 64.8325 112.71C64.4991 113.063 63.9725 113.24 63.2525 113.24H61.4525V116H60.5525V109.1H63.2525ZM64.4225 110.99C64.4225 110.663 64.3225 110.39 64.1225 110.17C63.9225 109.95 63.5958 109.84 63.1425 109.84H61.4525V112.5H63.1425C63.5825 112.5 63.9058 112.393 64.1125 112.18C64.3191 111.967 64.4225 111.7 64.4225 111.38V110.99ZM65.9546 114.68C65.9546 114.447 65.9846 114.243 66.0446 114.07C66.1113 113.89 66.218 113.74 66.3646 113.62C66.5113 113.493 66.7046 113.393 66.9446 113.32C67.1846 113.247 67.4813 113.197 67.8346 113.17L69.3146 113.05V112.88C69.3146 112.4 69.218 112.06 69.0246 111.86C68.838 111.653 68.5446 111.55 68.1446 111.55C67.8246 111.55 67.568 111.61 67.3746 111.73C67.188 111.843 67.058 112.06 66.9846 112.38H66.1146C66.2546 111.413 66.928 110.93 68.1346 110.93C68.8213 110.93 69.3313 111.083 69.6646 111.39C69.998 111.697 70.1646 112.193 70.1646 112.88V116H69.3546V115.21C69.1813 115.497 68.9446 115.72 68.6446 115.88C68.3446 116.033 67.9813 116.11 67.5546 116.11C67.028 116.11 66.628 115.987 66.3546 115.74C66.088 115.493 65.9546 115.14 65.9546 114.68ZM67.7546 115.5C67.9613 115.5 68.158 115.473 68.3446 115.42C68.5313 115.36 68.6946 115.27 68.8346 115.15C68.9813 115.023 69.098 114.863 69.1846 114.67C69.2713 114.47 69.3146 114.227 69.3146 113.94V113.6L67.9346 113.72C67.5346 113.753 67.248 113.833 67.0746 113.96C66.9013 114.08 66.8146 114.283 66.8146 114.57V114.71C66.8146 115.237 67.128 115.5 67.7546 115.5ZM71.9974 114.6C72.064 115.213 72.4607 115.52 73.1874 115.52C73.5807 115.52 73.8707 115.457 74.0574 115.33C74.2507 115.197 74.3474 114.973 74.3474 114.66V114.49C74.3474 114.23 74.2574 114.033 74.0774 113.9C73.904 113.767 73.6474 113.7 73.3074 113.7H72.6874V113.1H73.2674C73.9007 113.1 74.2174 112.863 74.2174 112.39V112.19C74.2174 111.943 74.1307 111.77 73.9574 111.67C73.784 111.57 73.5274 111.52 73.1874 111.52C72.8274 111.52 72.564 111.583 72.3974 111.71C72.2307 111.837 72.124 112.037 72.0774 112.31H71.2074C71.2607 111.817 71.454 111.463 71.7874 111.25C72.1274 111.037 72.5907 110.93 73.1774 110.93C73.7707 110.93 74.234 111.033 74.5674 111.24C74.9074 111.447 75.0774 111.777 75.0774 112.23C75.0774 112.49 75.0074 112.72 74.8674 112.92C74.734 113.113 74.5074 113.257 74.1874 113.35C74.5474 113.443 74.8074 113.6 74.9674 113.82C75.134 114.033 75.2174 114.277 75.2174 114.55C75.2174 115.117 75.0407 115.52 74.6874 115.76C74.334 115.993 73.834 116.11 73.1874 116.11C72.594 116.11 72.114 115.993 71.7474 115.76C71.3874 115.527 71.1807 115.14 71.1274 114.6H71.9974ZM77.1116 111.71V116H76.3516V111.04H77.6116L79.0616 114.66L80.5216 111.04H81.7616V116H80.9216V111.71L79.4416 115.39H78.5916L77.1116 111.71ZM82.9078 113.53C82.9078 112.597 83.0911 111.93 83.4578 111.53C83.8244 111.13 84.3578 110.93 85.0578 110.93C85.7644 110.93 86.3011 111.12 86.6678 111.5C87.0411 111.88 87.2278 112.487 87.2278 113.32V113.56H83.7478V113.87C83.7478 114.43 83.8611 114.84 84.0878 115.1C84.3144 115.36 84.6378 115.49 85.0578 115.49C85.4378 115.49 85.7278 115.417 85.9278 115.27C86.1278 115.117 86.2544 114.897 86.3078 114.61H87.1578C87.0778 115.09 86.8644 115.46 86.5178 115.72C86.1711 115.98 85.6844 116.11 85.0578 116.11C84.7044 116.11 84.3944 116.063 84.1278 115.97C83.8611 115.87 83.6378 115.717 83.4578 115.51C83.2778 115.303 83.1411 115.037 83.0478 114.71C82.9544 114.383 82.9078 113.99 82.9078 113.53ZM85.0578 111.55C84.6311 111.55 84.3078 111.663 84.0878 111.89C83.8744 112.117 83.7611 112.493 83.7478 113.02H86.3778C86.3578 112.487 86.2378 112.11 86.0178 111.89C85.7978 111.663 85.4778 111.55 85.0578 111.55ZM89.144 111.04V111.8C89.3174 111.493 89.5407 111.273 89.814 111.14C90.0874 111 90.4107 110.93 90.784 110.93C91.124 110.93 91.4207 110.977 91.674 111.07C91.934 111.163 92.1507 111.313 92.324 111.52C92.504 111.727 92.6374 111.997 92.724 112.33C92.8174 112.657 92.864 113.057 92.864 113.53C92.864 113.997 92.8174 114.393 92.724 114.72C92.6374 115.047 92.504 115.313 92.324 115.52C92.1507 115.727 91.934 115.877 91.674 115.97C91.4207 116.063 91.124 116.11 90.784 116.11C90.424 116.11 90.1107 116.047 89.844 115.92C89.5774 115.793 89.3574 115.59 89.184 115.31V118H88.334V111.04H89.144ZM92.004 113.14C92.004 112.56 91.8774 112.153 91.624 111.92C91.3707 111.68 91.0274 111.56 90.594 111.56C90.154 111.56 89.8107 111.673 89.564 111.9C89.324 112.127 89.1974 112.513 89.184 113.06V113.89C89.184 114.43 89.314 114.83 89.574 115.09C89.834 115.35 90.174 115.48 90.594 115.48C91.0274 115.48 91.3707 115.36 91.624 115.12C91.8774 114.88 92.004 114.47 92.004 113.89V113.14ZM98.5951 116.11C98.1751 116.11 97.7985 116.067 97.4651 115.98C97.1385 115.887 96.8585 115.74 96.6251 115.54C96.3985 115.333 96.2218 115.067 96.0951 114.74C95.9751 114.407 95.9151 114 95.9151 113.52C95.9151 113.04 95.9751 112.637 96.0951 112.31C96.2218 111.983 96.3985 111.717 96.6251 111.51C96.8585 111.303 97.1385 111.157 97.4651 111.07C97.7985 110.977 98.1751 110.93 98.5951 110.93V108.7H99.4451V110.93C99.8651 110.93 100.238 110.977 100.565 111.07C100.898 111.157 101.178 111.303 101.405 111.51C101.638 111.717 101.815 111.983 101.935 112.31C102.062 112.637 102.125 113.04 102.125 113.52C102.125 114 102.062 114.403 101.935 114.73C101.815 115.057 101.638 115.323 101.405 115.53C101.178 115.737 100.898 115.887 100.565 115.98C100.238 116.067 99.8651 116.11 99.4451 116.11V118H98.5951V116.11ZM98.5951 111.56C98.0218 111.56 97.5751 111.683 97.2551 111.93C96.9351 112.17 96.7751 112.587 96.7751 113.18V113.81C96.7751 114.403 96.9285 114.83 97.2351 115.09C97.5418 115.35 97.9951 115.48 98.5951 115.48V111.56ZM101.265 113.17C101.265 112.583 101.108 112.17 100.795 111.93C100.482 111.683 100.032 111.56 99.4451 111.56V115.48C100.032 115.48 100.482 115.35 100.795 115.09C101.108 114.83 101.265 114.403 101.265 113.81V113.17ZM102.986 114.68C102.986 114.447 103.016 114.243 103.076 114.07C103.143 113.89 103.249 113.74 103.396 113.62C103.543 113.493 103.736 113.393 103.976 113.32C104.216 113.247 104.513 113.197 104.866 113.17L106.346 113.05V112.88C106.346 112.4 106.249 112.06 106.056 111.86C105.869 111.653 105.576 111.55 105.176 111.55C104.856 111.55 104.599 111.61 104.406 111.73C104.219 111.843 104.089 112.06 104.016 112.38H103.146C103.286 111.413 103.959 110.93 105.166 110.93C105.853 110.93 106.363 111.083 106.696 111.39C107.029 111.697 107.196 112.193 107.196 112.88V116H106.386V115.21C106.213 115.497 105.976 115.72 105.676 115.88C105.376 116.033 105.013 116.11 104.586 116.11C104.059 116.11 103.659 115.987 103.386 115.74C103.119 115.493 102.986 115.14 102.986 114.68ZM104.786 115.5C104.993 115.5 105.189 115.473 105.376 115.42C105.563 115.36 105.726 115.27 105.866 115.15C106.013 115.023 106.129 114.863 106.216 114.67C106.303 114.47 106.346 114.227 106.346 113.94V113.6L104.966 113.72C104.566 113.753 104.279 113.833 104.106 113.96C103.933 114.08 103.846 114.283 103.846 114.57V114.71C103.846 115.237 104.159 115.5 104.786 115.5ZM109.409 111.04V115L111.709 111.04H112.689V116H111.839V112.04L109.539 116H108.559V111.04H109.409ZM109.899 108.67C109.899 109.03 109.955 109.293 110.069 109.46C110.182 109.62 110.362 109.7 110.609 109.7C110.855 109.7 111.035 109.62 111.149 109.46C111.269 109.293 111.329 109.03 111.329 108.67H112.079C112.079 109.177 111.959 109.567 111.719 109.84C111.479 110.107 111.109 110.24 110.609 110.24C109.635 110.24 109.149 109.717 109.149 108.67H109.899ZM113.556 115.25H113.646C113.792 115.25 113.916 115.223 114.016 115.17C114.122 115.117 114.206 115.017 114.266 114.87C114.332 114.717 114.379 114.507 114.406 114.24C114.432 113.967 114.446 113.613 114.446 113.18V111.04H118.016V116H117.166V111.72H115.226V113.18C115.226 113.78 115.196 114.267 115.136 114.64C115.082 115.007 114.996 115.29 114.876 115.49C114.756 115.69 114.599 115.827 114.406 115.9C114.212 115.967 113.979 116 113.706 116H113.556V115.25ZM119.168 114.68C119.168 114.447 119.198 114.243 119.258 114.07C119.324 113.89 119.431 113.74 119.578 113.62C119.724 113.493 119.918 113.393 120.158 113.32C120.398 113.247 120.694 113.197 121.048 113.17L122.528 113.05V112.88C122.528 112.4 122.431 112.06 122.238 111.86C122.051 111.653 121.758 111.55 121.358 111.55C121.038 111.55 120.781 111.61 120.588 111.73C120.401 111.843 120.271 112.06 120.198 112.38H119.328C119.468 111.413 120.141 110.93 121.348 110.93C122.034 110.93 122.544 111.083 122.878 111.39C123.211 111.697 123.378 112.193 123.378 112.88V116H122.568V115.21C122.394 115.497 122.158 115.72 121.858 115.88C121.558 116.033 121.194 116.11 120.768 116.11C120.241 116.11 119.841 115.987 119.568 115.74C119.301 115.493 119.168 115.14 119.168 114.68ZM120.968 115.5C121.174 115.5 121.371 115.473 121.558 115.42C121.744 115.36 121.908 115.27 122.048 115.15C122.194 115.023 122.311 114.863 122.398 114.67C122.484 114.47 122.528 114.227 122.528 113.94V113.6L121.148 113.72C120.748 113.753 120.461 113.833 120.288 113.96C120.114 114.08 120.028 114.283 120.028 114.57V114.71C120.028 115.237 120.341 115.5 120.968 115.5ZM62.7582 124.04V126.14H65.0682V124.04H65.9182V129H65.0682V126.82H62.7582V129H61.9082V124.04H62.7582ZM67.0679 126.53C67.0679 125.597 67.2513 124.93 67.6179 124.53C67.9846 124.13 68.5179 123.93 69.2179 123.93C69.9246 123.93 70.4613 124.12 70.8279 124.5C71.2013 124.88 71.3879 125.487 71.3879 126.32V126.56H67.9079V126.87C67.9079 127.43 68.0213 127.84 68.2479 128.1C68.4746 128.36 68.7979 128.49 69.2179 128.49C69.5979 128.49 69.8879 128.417 70.0879 128.27C70.2879 128.117 70.4146 127.897 70.4679 127.61H71.3179C71.2379 128.09 71.0246 128.46 70.6779 128.72C70.3313 128.98 69.8446 129.11 69.2179 129.11C68.8646 129.11 68.5546 129.063 68.2879 128.97C68.0213 128.87 67.7979 128.717 67.6179 128.51C67.4379 128.303 67.3013 128.037 67.2079 127.71C67.1146 127.383 67.0679 126.99 67.0679 126.53ZM69.2179 124.55C68.7913 124.55 68.4679 124.663 68.2479 124.89C68.0346 125.117 67.9213 125.493 67.9079 126.02H70.5379C70.5179 125.487 70.3979 125.11 70.1779 124.89C69.9579 124.663 69.6379 124.55 69.2179 124.55ZM74.5514 126.37C74.5514 125.47 74.5914 124.727 74.6714 124.14C74.7581 123.553 74.9081 123.09 75.1214 122.75C75.3348 122.403 75.6214 122.157 75.9814 122.01C76.3481 121.863 76.8148 121.777 77.3814 121.75C77.7548 121.737 78.0481 121.723 78.2614 121.71C78.4748 121.697 78.6414 121.68 78.7614 121.66V122.4C78.6481 122.42 78.4848 122.437 78.2714 122.45C78.0648 122.463 77.7781 122.477 77.4114 122.49C77.0248 122.503 76.7014 122.55 76.4414 122.63C76.1814 122.703 75.9681 122.833 75.8014 123.02C75.6414 123.2 75.5214 123.453 75.4414 123.78C75.3614 124.1 75.3081 124.513 75.2814 125.02C75.4414 124.707 75.6681 124.47 75.9614 124.31C76.2548 124.143 76.6114 124.06 77.0314 124.06C77.7181 124.06 78.2348 124.257 78.5814 124.65C78.9281 125.037 79.1014 125.667 79.1014 126.54C79.1014 127.42 78.9081 128.07 78.5214 128.49C78.1414 128.903 77.5748 129.11 76.8214 129.11C76.0814 129.11 75.5181 128.897 75.1314 128.47C74.7448 128.037 74.5514 127.337 74.5514 126.37ZM78.2314 126.24C78.2314 125.953 78.1981 125.713 78.1314 125.52C78.0648 125.32 77.9681 125.16 77.8414 125.04C77.7214 124.913 77.5748 124.823 77.4014 124.77C77.2281 124.717 77.0348 124.69 76.8214 124.69C76.3881 124.69 76.0448 124.807 75.7914 125.04C75.5381 125.273 75.4114 125.673 75.4114 126.24V126.86C75.4114 127.433 75.5381 127.847 75.7914 128.1C76.0448 128.353 76.3881 128.48 76.8214 128.48C77.2681 128.48 77.6148 128.353 77.8614 128.1C78.1081 127.847 78.2314 127.433 78.2314 126.86V126.24ZM83.6483 126.15C83.6483 125.59 83.525 125.187 83.2783 124.94C83.0317 124.687 82.685 124.56 82.2383 124.56C81.785 124.56 81.435 124.687 81.1883 124.94C80.9417 125.187 80.8183 125.59 80.8183 126.15V126.87C80.8183 127.43 80.9417 127.84 81.1883 128.1C81.435 128.353 81.785 128.48 82.2383 128.48C82.685 128.48 83.0317 128.353 83.2783 128.1C83.525 127.84 83.6483 127.43 83.6483 126.87V126.15ZM79.9583 126.52C79.9583 126.047 80.0083 125.647 80.1083 125.32C80.2083 124.987 80.355 124.72 80.5483 124.52C80.7417 124.313 80.9783 124.163 81.2583 124.07C81.545 123.977 81.8717 123.93 82.2383 123.93C82.605 123.93 82.9283 123.977 83.2083 124.07C83.495 124.163 83.7317 124.313 83.9183 124.52C84.1117 124.72 84.2583 124.987 84.3583 125.32C84.4583 125.647 84.5083 126.047 84.5083 126.52C84.5083 126.993 84.4583 127.397 84.3583 127.73C84.2583 128.057 84.1117 128.323 83.9183 128.53C83.7317 128.737 83.495 128.887 83.2083 128.98C82.9283 129.067 82.605 129.11 82.2383 129.11C81.8717 129.11 81.545 129.067 81.2583 128.98C80.9783 128.887 80.7417 128.737 80.5483 128.53C80.355 128.323 80.2083 128.057 80.1083 127.73C80.0083 127.397 79.9583 126.993 79.9583 126.52ZM85.0399 128.25H85.1299C85.2765 128.25 85.3999 128.223 85.4999 128.17C85.6065 128.117 85.6899 128.017 85.7499 127.87C85.8165 127.717 85.8632 127.507 85.8899 127.24C85.9165 126.967 85.9299 126.613 85.9299 126.18V124.04H89.4999V129H88.6499V124.72H86.7099V126.18C86.7099 126.78 86.6799 127.267 86.6199 127.64C86.5665 128.007 86.4799 128.29 86.3599 128.49C86.2399 128.69 86.0832 128.827 85.8899 128.9C85.6965 128.967 85.4632 129 85.1899 129H85.0399V128.25ZM90.6519 126.53C90.6519 125.597 90.8352 124.93 91.2019 124.53C91.5686 124.13 92.1019 123.93 92.8019 123.93C93.5086 123.93 94.0452 124.12 94.4119 124.5C94.7852 124.88 94.9719 125.487 94.9719 126.32V126.56H91.4919V126.87C91.4919 127.43 91.6052 127.84 91.8319 128.1C92.0586 128.36 92.3819 128.49 92.8019 128.49C93.1819 128.49 93.4719 128.417 93.6719 128.27C93.8719 128.117 93.9986 127.897 94.0519 127.61H94.9019C94.8219 128.09 94.6086 128.46 94.2619 128.72C93.9152 128.98 93.4286 129.11 92.8019 129.11C92.4486 129.11 92.1386 129.063 91.8719 128.97C91.6052 128.87 91.3819 128.717 91.2019 128.51C91.0219 128.303 90.8852 128.037 90.7919 127.71C90.6986 127.383 90.6519 126.99 90.6519 126.53ZM92.8019 124.55C92.3752 124.55 92.0519 124.663 91.8319 124.89C91.6186 125.117 91.5052 125.493 91.4919 126.02H94.1219C94.1019 125.487 93.9819 125.11 93.7619 124.89C93.5419 124.663 93.2219 124.55 92.8019 124.55ZM95.8082 126.53C95.8082 125.597 95.9915 124.93 96.3582 124.53C96.7248 124.13 97.2582 123.93 97.9582 123.93C98.6648 123.93 99.2015 124.12 99.5682 124.5C99.9415 124.88 100.128 125.487 100.128 126.32V126.56H96.6482V126.87C96.6482 127.43 96.7615 127.84 96.9882 128.1C97.2148 128.36 97.5382 128.49 97.9582 128.49C98.3382 128.49 98.6282 128.417 98.8282 128.27C99.0282 128.117 99.1548 127.897 99.2082 127.61H100.058C99.9782 128.09 99.7648 128.46 99.4182 128.72C99.0715 128.98 98.5848 129.11 97.9582 129.11C97.6048 129.11 97.2948 129.063 97.0282 128.97C96.7615 128.87 96.5382 128.717 96.3582 128.51C96.1782 128.303 96.0415 128.037 95.9482 127.71C95.8548 127.383 95.8082 126.99 95.8082 126.53ZM97.9582 124.55C97.5315 124.55 97.2082 124.663 96.9882 124.89C96.7748 125.117 96.6615 125.493 96.6482 126.02H99.2782C99.2582 125.487 99.1382 125.11 98.9182 124.89C98.6982 124.663 98.3782 124.55 97.9582 124.55ZM104.102 127.29C104.195 128.017 104.698 128.38 105.612 128.38C106.092 128.38 106.458 128.263 106.712 128.03C106.972 127.79 107.102 127.427 107.102 126.94V126.53C107.102 126.07 106.975 125.73 106.722 125.51C106.468 125.29 106.112 125.18 105.652 125.18C105.378 125.18 105.118 125.237 104.872 125.35C104.632 125.463 104.425 125.623 104.252 125.83L103.392 125.67L103.762 122.1H107.632V122.85H104.452L104.212 125.2C104.365 125.02 104.575 124.867 104.842 124.74C105.115 124.607 105.448 124.54 105.842 124.54C106.542 124.54 107.078 124.723 107.452 125.09C107.825 125.45 108.012 126.003 108.012 126.75C108.012 127.55 107.805 128.143 107.392 128.53C106.985 128.917 106.392 129.11 105.612 129.11C104.852 129.11 104.265 128.957 103.852 128.65C103.445 128.337 103.222 127.883 103.182 127.29H104.102ZM112.29 122.87V129H111.47V122.1H112.88L114.8 128.09L116.76 122.1H118.1V129H117.2V122.9L115.2 129H114.28L112.29 122.87ZM123.974 122.1V122.84H120.554V124.97H122.284C123.017 124.97 123.557 125.143 123.904 125.49C124.257 125.83 124.434 126.317 124.434 126.95C124.434 127.597 124.257 128.1 123.904 128.46C123.557 128.82 123.017 129 122.284 129H119.664V122.1H123.974ZM123.514 126.78C123.514 126.62 123.487 126.473 123.434 126.34C123.387 126.2 123.307 126.08 123.194 125.98C123.087 125.88 122.947 125.803 122.774 125.75C122.6 125.69 122.39 125.66 122.144 125.66H120.554V128.28H122.144C122.63 128.28 122.98 128.177 123.194 127.97C123.407 127.757 123.514 127.483 123.514 127.15V126.78Z" fill="#626C77"/>
<defs>
<clipPath id="clip0_43_183">
<rect width="20" height="20" fill="white" transform="translate(83 77)"/>
</clipPath>
</defs>
</svg>
