<svg width="20" height="20" viewBox="0 0 20 20" fill="none" xmlns="http://www.w3.org/2000/svg">
<path d="M16.6988 7.98095C15.7859 6.49428 13.7095 4 10.0652 4C6.42092 4 4.34451 6.49428 3.43167 7.98095C3.14948 8.43738 3 8.96339 3 9.5C3 10.0366 3.14948 10.5626 3.43167 11.019C4.34451 12.5057 6.42092 15 10.0652 15C13.7095 15 15.7859 12.5057 16.6988 11.019C16.981 10.5626 17.1304 10.0366 17.1304 9.5C17.1304 8.96339 16.981 8.43738 16.6988 7.98095ZM15.6953 10.4028C14.9113 11.6776 13.1369 13.8229 10.0652 13.8229C6.99357 13.8229 5.2191 11.6776 4.43515 10.4028C4.26749 10.1315 4.17869 9.81892 4.17869 9.5C4.17869 9.18108 4.26749 8.86846 4.43515 8.59716C5.2191 7.32237 6.99357 5.1771 10.0652 5.1771C13.1369 5.1771 14.9113 7.32001 15.6953 8.59716C15.8629 8.86846 15.9517 9.18108 15.9517 9.5C15.9517 9.81892 15.8629 10.1315 15.6953 10.4028Z" fill="#626C77"/>
<path d="M10.0653 6.55713C9.48329 6.55713 8.91434 6.72972 8.43041 7.05307C7.94647 7.37643 7.56929 7.83602 7.34656 8.37374C7.12383 8.91146 7.06556 9.50314 7.1791 10.074C7.29265 10.6448 7.57292 11.1692 7.98447 11.5807C8.39602 11.9923 8.92037 12.2725 9.49121 12.3861C10.062 12.4996 10.6537 12.4414 11.1915 12.2186C11.7292 11.9959 12.1888 11.6187 12.5121 11.1348C12.8355 10.6509 13.0081 10.0819 13.0081 9.49988C13.0071 8.7197 12.6968 7.97174 12.1451 7.42007C11.5934 6.8684 10.8455 6.55806 10.0653 6.55713ZM10.0653 11.2655C9.7161 11.2655 9.37473 11.162 9.08437 10.968C8.79401 10.774 8.5677 10.4982 8.43406 10.1756C8.30042 9.85293 8.26546 9.49792 8.33359 9.15542C8.40171 8.81292 8.56988 8.49831 8.81681 8.25138C9.06374 8.00445 9.37835 7.83628 9.72085 7.76816C10.0634 7.70003 10.4184 7.73499 10.741 7.86863C11.0636 8.00227 11.3394 8.22858 11.5334 8.51894C11.7274 8.8093 11.831 9.15067 11.831 9.49988C11.831 9.96816 11.6449 10.4173 11.3138 10.7484C10.9827 11.0795 10.5336 11.2655 10.0653 11.2655Z" fill="#626C77"/>
</svg>
