<svg width="24" height="24" viewBox="0 0 24 24" fill="none" xmlns="http://www.w3.org/2000/svg">
<path d="M18.9875 15C19.8877 15 20.3386 13.9234 19.702 13.2938C19.702 13.2938 19.702 13.2938 19.702 13.2938L16.5727 10.1984C14.4171 8.06612 13.3393 7 12 7C10.6607 7 9.58288 8.06612 7.42729 10.1984L4.29797 13.2938C3.66144 13.9234 4.11226 15 5.01246 15C5.28044 15 5.53745 14.8947 5.72694 14.7073L8.85626 11.6118C9.97445 10.5058 10.6724 9.82141 11.2456 9.38882C11.7629 8.99838 11.9435 8.99883 11.9972 8.99897L12 8.99897L12.0027 8.99897C12.0565 8.99883 12.2371 8.99838 12.7544 9.38882C13.3276 9.8214 14.0255 10.5058 15.1437 11.6118L18.2731 14.7073C18.2731 14.7073 18.2731 14.7073 18.2731 14.7073C18.4625 14.8947 18.7196 15 18.9875 15Z" fill="#8D969F"/>
</svg>
